<?xml version="1.0" encoding="UTF-8"?>
<svg xmlns="http://www.w3.org/2000/svg" version="1.1" viewBox="0 0 576 512">
  <defs>
    <style>
      .cls-1 {
        fill: #7b410d;
      }

      .cls-2 {
        fill: #ffe7cf;
      }
    </style>
  </defs>
  <!-- Generator: Adobe Illustrator 28.7.3, SVG Export Plug-In . SVG Version: 1.2.0 Build 164)  -->
  <g>
    <g id="Layer_1">
      <rect class="cls-2" width="576" height="512" rx="75" ry="75"/>
      <path class="cls-1" d="M260.6,160.1c0-45.4-36.8-82.2-82.2-82.2s-82.2,36.8-82.2,82.2,36.8,82.2,82.2,82.2,82.2-36.8,82.2-82.2ZM298.6,187.5c-12.4,54.9-61.6,95.9-120.3,95.9s-123.4-55.3-123.4-123.4,55.3-123.4,123.4-123.4,107.8,41,120.3,95.9h61.5c7.5-8.4,18.5-13.7,30.7-13.7h89.1c22.7,0,41.1,18.4,41.1,41.1s-18.4,41.1-41.1,41.1h-89.1c-12.2,0-23.1-5.3-30.7-13.7h-61.5ZM178.4,105.2c30.3,0,54.8,24.5,54.8,54.8s-24.5,54.8-54.8,54.8-54.8-24.5-54.8-54.8,24.5-54.8,54.8-54.8ZM397.6,242.3c11.4,0,20.6,9.2,20.6,20.6v6.9h82.2c11.4,0,20.6,9.2,20.6,20.6s-9.2,20.6-20.6,20.6h-205.6c-11.4,0-20.6-9.2-20.6-20.6s9.2-20.6,20.6-20.6h82.2v-6.9c0-11.4,9.2-20.6,20.6-20.6ZM301.7,434.2v-95.9h191.9v95.9c0,22.7-18.4,41.1-41.1,41.1h-109.6c-22.7,0-41.1-18.4-41.1-41.1ZM96.1,310.8h109.6c22.7,0,41.1,18.4,41.1,41.1s-18.4,41.1-41.1,41.1h-13.7c0,15.2-12.2,27.4-27.4,27.4h-54.8c-15.2,0-27.4-12.2-27.4-27.4v-68.5c0-7.5,6.2-13.7,13.7-13.7ZM205.8,365.6c7.5,0,13.7-6.2,13.7-13.7s-6.2-13.7-13.7-13.7h-13.7v27.4h13.7ZM75.6,434.2h150.8c11.4,0,20.6,9.2,20.6,20.6s-9.2,20.6-20.6,20.6H75.6c-11.4,0-20.6-9.2-20.6-20.6s9.2-20.6,20.6-20.6Z"/>
    </g>
  </g>
</svg>